REM DIRINDEX 1\2,1\3,1\4,1\5\6,1\5\7,1\8
REM DIRNAME cjc115,folder01,folder02,folder03,folder04,folder05,folder06,folder07
TITLE ""
FILE "096 Åy096ÅzUnit6 (1081 existence_1092 investigation).mp3" MP3
  TRACK 01 AUDIO
    TITLE "0:"
    INDEX 01 00:00:00
  TRACK 02 AUDIO
    TITLE "8:cjc115_3765"
    INDEX 01 00:00:07
  TRACK 03 AUDIO
    TITLE "0:"
    INDEX 01 00:01:48
  TRACK 04 AUDIO
    TITLE "2:cjc115_3766"
    INDEX 01 00:02:22
  TRACK 05 AUDIO
    TITLE "0:"
    INDEX 01 00:03:63
  TRACK 06 AUDIO
    TITLE "3:cjc115_3767"
    INDEX 01 00:03:72
  TRACK 07 AUDIO
    TITLE "0:"
    INDEX 01 00:05:10
  TRACK 08 AUDIO
    TITLE "4:cjc115_3768"
    INDEX 01 00:05:16
  TRACK 09 AUDIO
    TITLE "0:"
    INDEX 01 00:09:53
  TRACK 10 AUDIO
    TITLE "2:cjc115_3769"
    INDEX 01 00:10:63
  TRACK 11 AUDIO
    TITLE "0:"
    INDEX 01 00:12:12
  TRACK 12 AUDIO
    TITLE "3:cjc115_3770"
    INDEX 01 00:12:24
  TRACK 13 AUDIO
    TITLE "0:"
    INDEX 01 00:14:49
  TRACK 14 AUDIO
    TITLE "4:cjc115_3771"
    INDEX 01 00:14:53
  TRACK 15 AUDIO
    TITLE "0:"
    INDEX 01 00:18:66
  TRACK 16 AUDIO
    TITLE "2:cjc115_3772"
    INDEX 01 00:20:00
  TRACK 17 AUDIO
    TITLE "0:"
    INDEX 01 00:21:15
  TRACK 18 AUDIO
    TITLE "3:cjc115_3773"
    INDEX 01 00:21:27
  TRACK 19 AUDIO
    TITLE "0:"
    INDEX 01 00:23:63
  TRACK 20 AUDIO
    TITLE "4:cjc115_3774"
    INDEX 01 00:23:65
  TRACK 21 AUDIO
    TITLE "0:"
    INDEX 01 00:27:24
  TRACK 22 AUDIO
    TITLE "2:cjc115_3775"
    INDEX 01 00:28:33
  TRACK 23 AUDIO
    TITLE "0:"
    INDEX 01 00:29:58
  TRACK 24 AUDIO
    TITLE "3:cjc115_3776"
    INDEX 01 00:29:70
  TRACK 25 AUDIO
    TITLE "0:"
    INDEX 01 00:32:48
  TRACK 26 AUDIO
    TITLE "4:cjc115_3777"
    INDEX 01 00:32:54
  TRACK 27 AUDIO
    TITLE "0:"
    INDEX 01 00:37:01
  TRACK 28 AUDIO
    TITLE "2:cjc115_3778"
    INDEX 01 00:38:12
  TRACK 29 AUDIO
    TITLE "0:"
    INDEX 01 00:39:25
  TRACK 30 AUDIO
    TITLE "3:cjc115_3779"
    INDEX 01 00:39:33
  TRACK 31 AUDIO
    TITLE "0:"
    INDEX 01 00:40:36
  TRACK 32 AUDIO
    TITLE "4:cjc115_3780"
    INDEX 01 00:40:44
  TRACK 33 AUDIO
    TITLE "0:"
    INDEX 01 00:44:42
  TRACK 34 AUDIO
    TITLE "2:cjc115_3781"
    INDEX 01 00:45:55
  TRACK 35 AUDIO
    TITLE "0:"
    INDEX 01 00:46:70
  TRACK 36 AUDIO
    TITLE "3:cjc115_3782"
    INDEX 01 00:47:01
  TRACK 37 AUDIO
    TITLE "0:"
    INDEX 01 00:49:18
  TRACK 38 AUDIO
    TITLE "4:cjc115_3783"
    INDEX 01 00:49:20
  TRACK 39 AUDIO
    TITLE "0:"
    INDEX 01 00:53:04
  TRACK 40 AUDIO
    TITLE "2:cjc115_3784"
    INDEX 01 00:54:09
  TRACK 41 AUDIO
    TITLE "0:"
    INDEX 01 00:55:30
  TRACK 42 AUDIO
    TITLE "3:cjc115_3785"
    INDEX 01 00:55:42
  TRACK 43 AUDIO
    TITLE "0:"
    INDEX 01 00:56:69
  TRACK 44 AUDIO
    TITLE "4:cjc115_3786"
    INDEX 01 00:56:74
  TRACK 45 AUDIO
    TITLE "0:"
    INDEX 01 00:59:63
  TRACK 46 AUDIO
    TITLE "2:cjc115_3787"
    INDEX 01 01:00:74
  TRACK 47 AUDIO
    TITLE "0:"
    INDEX 01 01:02:22
  TRACK 48 AUDIO
    TITLE "3:cjc115_3788"
    INDEX 01 01:02:32
  TRACK 49 AUDIO
    TITLE "0:"
    INDEX 01 01:04:58
  TRACK 50 AUDIO
    TITLE "4:cjc115_3789"
    INDEX 01 01:04:62
  TRACK 51 AUDIO
    TITLE "0:"
    INDEX 01 01:08:60
  TRACK 52 AUDIO
    TITLE "2:cjc115_3790"
    INDEX 01 01:09:67
  TRACK 53 AUDIO
    TITLE "0:"
    INDEX 01 01:11:03
  TRACK 54 AUDIO
    TITLE "3:cjc115_3791"
    INDEX 01 01:11:13
  TRACK 55 AUDIO
    TITLE "0:"
    INDEX 01 01:13:10
  TRACK 56 AUDIO
    TITLE "4:cjc115_3792"
    INDEX 01 01:13:16
  TRACK 57 AUDIO
    TITLE "0:"
    INDEX 01 01:17:39
  TRACK 58 AUDIO
    TITLE "2:cjc115_3793"
    INDEX 01 01:18:49
  TRACK 59 AUDIO
    TITLE "0:"
    INDEX 01 01:19:72
  TRACK 60 AUDIO
    TITLE "3:cjc115_3794"
    INDEX 01 01:20:08
  TRACK 61 AUDIO
    TITLE "0:"
    INDEX 01 01:22:25
  TRACK 62 AUDIO
    TITLE "4:cjc115_3795"
    INDEX 01 01:22:31
  TRACK 63 AUDIO
    TITLE "0:"
    INDEX 01 01:25:72
  TRACK 64 AUDIO
    TITLE "2:cjc115_3796"
    INDEX 01 01:27:03
  TRACK 65 AUDIO
    TITLE "0:"
    INDEX 01 01:28:31
  TRACK 66 AUDIO
    TITLE "3:cjc115_3797"
    INDEX 01 01:28:41
  TRACK 67 AUDIO
    TITLE "0:"
    INDEX 01 01:29:33
  TRACK 68 AUDIO
    TITLE "4:cjc115_3798"
    INDEX 01 01:29:39
  TRACK 69 AUDIO
    TITLE "0:"
    INDEX 01 01:33:03
  TRACK 70 AUDIO
    TITLE "2:cjc115_3799"
    INDEX 01 01:34:14
  TRACK 71 AUDIO
    TITLE "0:"
    INDEX 01 01:35:61
  TRACK 72 AUDIO
    TITLE "3:cjc115_3800"
    INDEX 01 01:35:71
  TRACK 73 AUDIO
    TITLE "0:"
    INDEX 01 01:37:73
  TRACK 74 AUDIO
    TITLE "4:cjc115_3801"
    INDEX 01 01:38:00
  TRACK 75 AUDIO
    TITLE "0:"
    INDEX 01 01:41:69
